<svg width="15" height="15" viewBox="0 0 15 15" fill="none" xmlns="http://www.w3.org/2000/svg">
<path d="M4.6875 3.75L5.625 1.875H9.375L10.3125 3.75H4.6875Z" fill="#747F95"/>
<path fill-rule="evenodd" clip-rule="evenodd" d="M5.20574 1.66537C5.28514 1.50656 5.44745 1.40625 5.625 1.40625H9.375C9.55255 1.40625 9.71486 1.50656 9.79426 1.66537L10.7318 3.54037C10.8044 3.68568 10.7967 3.85824 10.7112 3.99644C10.6258 4.13463 10.475 4.21875 10.3125 4.21875H4.6875C4.52504 4.21875 4.37417 4.13463 4.28876 3.99644C4.20335 3.85824 4.19558 3.68568 4.26824 3.54037L5.20574 1.66537ZM5.9147 2.34375L5.44595 3.28125H9.55405L9.0853 2.34375H5.9147Z" fill="#747F95"/>
<path d="M12.8125 3.75H2.1875C1.66973 3.75 1.25 4.16973 1.25 4.6875V12.1875C1.25 12.7053 1.66973 13.125 2.1875 13.125H12.8125C13.3303 13.125 13.75 12.7053 13.75 12.1875V4.6875C13.75 4.16973 13.3303 3.75 12.8125 3.75Z" fill="#747F95"/>
<path fill-rule="evenodd" clip-rule="evenodd" d="M2.1875 4.21875C1.92862 4.21875 1.71875 4.42862 1.71875 4.6875V12.1875C1.71875 12.4464 1.92862 12.6562 2.1875 12.6562H12.8125C13.0714 12.6562 13.2812 12.4464 13.2812 12.1875V4.6875C13.2812 4.42862 13.0714 4.21875 12.8125 4.21875H2.1875ZM0.78125 4.6875C0.78125 3.91085 1.41085 3.28125 2.1875 3.28125H12.8125C13.5891 3.28125 14.2188 3.91085 14.2188 4.6875V12.1875C14.2188 12.9642 13.5891 13.5938 12.8125 13.5938H2.1875C1.41085 13.5938 0.78125 12.9642 0.78125 12.1875V4.6875Z" fill="#747F95"/>
<path d="M7.5 10.9375C8.88072 10.9375 10 9.81822 10 8.4375C10 7.05678 8.88072 5.9375 7.5 5.9375C6.11928 5.9375 5 7.05678 5 8.4375C5 9.81822 6.11928 10.9375 7.5 10.9375Z" fill="#FFFBFF"/>
<path fill-rule="evenodd" clip-rule="evenodd" d="M4.53125 8.4375C4.53125 6.7979 5.8604 5.46875 7.5 5.46875C9.1396 5.46875 10.4688 6.7979 10.4688 8.4375C10.4688 10.0771 9.1396 11.4062 7.5 11.4062C5.8604 11.4062 4.53125 10.0771 4.53125 8.4375ZM7.5 6.40625C6.37816 6.40625 5.46875 7.31566 5.46875 8.4375C5.46875 9.55934 6.37816 10.4688 7.5 10.4688C8.62184 10.4688 9.53125 9.55934 9.53125 8.4375C9.53125 7.31566 8.62184 6.40625 7.5 6.40625Z" fill="#FFFBFF"/>
</svg>
