<svg width="16" height="16" viewBox="0 0 16 16" fill="none" xmlns="http://www.w3.org/2000/svg">
<path d="M13.7707 7.27929L10.7256 4.23414C10.5524 4.00779 10.2721 3.9 10 3.9H6C5.39477 3.9 4.9 4.39477 4.9 5V14C4.9 14.6052 5.39477 15.1 6 15.1H13C13.6052 15.1 14.1 14.6052 14.1 14V8.05C14.1 7.77264 13.9889 7.49744 13.7707 7.27929ZM10.1 7.9V5.24432L12.7114 7.9H10.1ZM6.1 13.9V5.1H8.9V8C8.9 8.60523 9.39477 9.1 10 9.1H12.9V13.9H6.1Z" fill="#111F3A" stroke="#111F3A" stroke-width="0.2"/>
<path d="M3 9.1H3.1V9V2.1H10H10.1V2V1V0.9H10H3C2.39477 0.9 1.9 1.39477 1.9 2V9V9.1H2H3Z" fill="#111F3A" stroke="#111F3A" stroke-width="0.2"/>
</svg>
