<svg width="343" height="196" viewBox="0 0 343 196" fill="none" xmlns="http://www.w3.org/2000/svg">
<rect x="179" y="20" width="164" height="156" rx="12" fill="#D0D7E9"/>
<g clip-path="url(#clip0_9727_3104)">
<rect width="330" height="196" rx="16" fill="#E8EEFC"/>
<g opacity="0.04" clip-path="url(#clip1_9727_3104)">
<path d="M240.86 148.142C234.427 145.189 227.298 143.501 219.751 143.501C191.722 143.501 169 166.223 169 194.249C169 222.278 191.722 245 219.751 245C227.298 245 234.426 243.312 240.86 240.359C228.923 228.607 221.5 212.284 221.5 194.249C221.5 176.217 228.923 159.893 240.86 148.142Z" fill="#172A4B"/>
<path d="M332.359 173.134C320.607 185.076 304.284 192.5 286.249 192.5C268.217 192.5 251.893 185.077 240.142 173.134C237.189 179.572 235.501 186.702 235.501 194.249C235.501 222.278 258.223 245 286.249 245C314.278 245 337 222.278 337 194.249C337 186.702 335.312 179.574 332.359 173.134Z" fill="#172A4B"/>
<path d="M286.249 77C278.702 77 271.574 78.6882 265.134 81.6409C277.076 93.3923 284.5 109.716 284.5 127.751C284.5 145.783 277.077 162.107 265.134 173.858C271.572 176.811 278.702 178.499 286.249 178.499C314.278 178.499 337 155.777 337 127.751C337 99.7218 314.278 77 286.249 77Z" fill="#172A4B"/>
<path d="M219.751 77C191.722 77 169 99.7218 169 127.751C169 135.298 170.688 142.426 173.641 148.86C185.393 136.923 201.716 129.5 219.751 129.5C237.783 129.5 254.107 136.923 265.858 148.86C268.811 142.427 270.499 135.298 270.499 127.751C270.499 99.7218 247.777 77 219.751 77Z" fill="#172A4B"/>
</g>
</g>
<defs>
<clipPath id="clip0_9727_3104">
<rect width="330" height="196" rx="16" fill="white"/>
</clipPath>
<clipPath id="clip1_9727_3104">
<rect width="168" height="168" fill="white" transform="translate(169 77)"/>
</clipPath>
</defs>
</svg>
