<svg width="164" height="92" viewBox="0 0 164 92" fill="none" xmlns="http://www.w3.org/2000/svg">
<mask id="mask0_204_5070" style="mask-type:alpha" maskUnits="userSpaceOnUse" x="0" y="0" width="164" height="91">
<path d="M0 0H164V91H0V0Z" fill="#D9D9D9"/>
</mask>
<g mask="url(#mask0_204_5070)">
<circle cx="82.5" cy="76.5" r="73.5" fill="#F5F8FF"/>
<circle cx="82.5" cy="76.5" r="52.5" fill="#E8EEFC"/>
</g>
<g clip-path="url(#clip0_204_5070)">
<path d="M124.608 89.999H77.5653C77.4036 89.999 77.2721 89.8691 77.2721 89.7094V79.1636C77.2721 79.0039 77.4036 78.874 77.5653 78.874H124.608C124.769 78.874 124.901 79.0039 124.901 79.1636V89.7094C124.901 89.8691 124.769 89.999 124.608 89.999Z" fill="#E8EEFC"/>
<path opacity="0.2" d="M101.086 89.3227C100.914 89.3227 100.776 89.1859 100.776 89.0163V79.8071C100.776 79.6376 100.914 79.5007 101.086 79.5007C101.258 79.5007 101.396 79.6376 101.396 79.8071V89.0163C101.397 89.1859 101.258 89.3227 101.086 89.3227Z" fill="#7193ED"/>
<path opacity="0.2" d="M78.6032 89.323C78.4315 89.323 78.293 89.1862 78.293 89.0166V79.8074C78.293 79.6379 78.4325 79.501 78.6032 79.501C78.7749 79.501 78.9135 79.6379 78.9135 79.8074V89.0166C78.9135 89.1862 78.7739 89.323 78.6032 89.323Z" fill="#7193ED"/>
<path opacity="0.2" d="M80.8946 89.3228C80.7229 89.3228 80.5844 89.1859 80.5844 89.0164V79.8072C80.5844 79.6376 80.7229 79.5008 80.8946 79.5008C81.0663 79.5008 81.2049 79.6376 81.2049 79.8072V89.0164C81.2049 89.1859 81.0663 89.3228 80.8946 89.3228Z" fill="#7193ED"/>
<path opacity="0.2" d="M84.2152 89.3228C84.0435 89.3228 83.9049 89.1859 83.9049 89.0164V79.8072C83.9049 79.6376 84.0435 79.5008 84.2152 79.5008C84.3869 79.5008 84.5254 79.6376 84.5254 79.8072V89.0164C84.5264 89.1859 84.3869 89.3228 84.2152 89.3228Z" fill="#7193ED"/>
<path opacity="0.2" d="M87.8802 89.3228C87.7085 89.3228 87.5699 89.1859 87.5699 89.0164V79.8072C87.5699 79.6376 87.7085 79.5008 87.8802 79.5008C88.0519 79.5008 88.1905 79.6376 88.1905 79.8072V89.0164C88.1905 89.1859 88.0509 89.3228 87.8802 89.3228Z" fill="#7193ED"/>
<path opacity="0.2" d="M91.8866 89.3228C91.7149 89.3228 91.5763 89.1859 91.5763 89.0164V79.8072C91.5763 79.6376 91.7159 79.5008 91.8866 79.5008C92.0583 79.5008 92.1968 79.6376 92.1968 79.8072V89.0164C92.1978 89.1859 92.0583 89.3228 91.8866 89.3228Z" fill="#7193ED"/>
<path opacity="0.2" d="M96.2374 89.3228C96.0657 89.3228 95.9271 89.1859 95.9271 89.0164V79.8072C95.9271 79.6376 96.0667 79.5008 96.2374 79.5008C96.4091 79.5008 96.5477 79.6376 96.5477 79.8072V89.0164C96.5477 89.1859 96.4081 89.3228 96.2374 89.3228Z" fill="#7193ED"/>
<path opacity="0.2" d="M123.57 79.4998C123.742 79.4998 123.88 79.6366 123.88 79.8062V89.0153C123.88 89.1849 123.742 89.3217 123.57 89.3217C123.398 89.3217 123.26 89.1849 123.26 89.0153V79.8062C123.26 79.6376 123.398 79.4998 123.57 79.4998Z" fill="#7193ED"/>
<path opacity="0.2" d="M121.278 79.4998C121.45 79.4998 121.588 79.6366 121.588 79.8062V89.0153C121.588 89.1849 121.45 89.3217 121.278 89.3217C121.106 89.3217 120.968 89.1849 120.968 89.0153V79.8062C120.968 79.6376 121.107 79.4998 121.278 79.4998Z" fill="#7193ED"/>
<path opacity="0.2" d="M117.957 79.4998C118.129 79.4998 118.268 79.6366 118.268 79.8062V89.0153C118.268 89.1849 118.129 89.3217 117.957 89.3217C117.786 89.3217 117.647 89.1849 117.647 89.0153V79.8062C117.647 79.6376 117.786 79.4998 117.957 79.4998Z" fill="#7193ED"/>
<path opacity="0.2" d="M114.293 79.4998C114.465 79.4998 114.603 79.6366 114.603 79.8062V89.0153C114.603 89.1849 114.465 89.3217 114.293 89.3217C114.121 89.3217 113.983 89.1849 113.983 89.0153V79.8062C113.983 79.6376 114.121 79.4998 114.293 79.4998Z" fill="#7193ED"/>
<path opacity="0.2" d="M110.286 79.4998C110.458 79.4998 110.596 79.6366 110.596 79.8062V89.0153C110.596 89.1849 110.458 89.3217 110.286 89.3217C110.114 89.3217 109.976 89.1849 109.976 89.0153V79.8062C109.976 79.6376 110.114 79.4998 110.286 79.4998Z" fill="#7193ED"/>
<path opacity="0.2" d="M105.936 79.4998C106.108 79.4998 106.246 79.6366 106.246 79.8062V89.0153C106.246 89.1849 106.108 89.3217 105.936 89.3217C105.764 89.3217 105.626 89.1849 105.626 89.0153V79.8062C105.626 79.6376 105.764 79.4998 105.936 79.4998Z" fill="#7193ED"/>
<path opacity="0.2" d="M124.902 79.8637V89.0103C124.902 89.5557 124.453 90 123.899 90H78.2729C77.8301 90 77.4525 89.7154 77.323 89.3227H102.289V79.5017H106.494V89.3227H107.715V79.5017H110.837V89.3227H111.246V79.5017H114.569V89.3227H114.84V79.5017H124.833C124.877 79.6138 124.902 79.7357 124.902 79.8637Z" fill="#7193ED"/>
<path opacity="0.2" d="M123.899 78.8753H78.2729C77.7206 78.8753 77.2708 79.3156 77.2708 79.8649V89.0116C77.2708 89.1197 77.2878 89.2248 77.322 89.323H78.302V79.501H78.8783V89.323H80.3032V79.502H81.2058V89.323H83.5625V79.502H84.8487V89.323H86.8178V79.502H88.1904V89.323H90.1595V79.502H92.2962V89.323H93.2812V79.502H96.5365V89.323H97.0306V79.502H124.833C124.686 79.1321 124.322 78.8753 123.899 78.8753Z" fill="white"/>
<path d="M125.707 78.997H78.6648C78.5031 78.997 78.3716 78.8671 78.3716 78.7075V68.1626C78.3716 68.003 78.5031 67.873 78.6648 67.873H125.707C125.869 67.873 126 68.003 126 68.1626V78.7085C125.999 78.8681 125.869 78.997 125.707 78.997Z" fill="#E8EEFC"/>
<path opacity="0.2" d="M102.186 78.3217C102.014 78.3217 101.875 78.1849 101.875 78.0153V68.8062C101.875 68.6366 102.015 68.4998 102.186 68.4998C102.357 68.4998 102.496 68.6366 102.496 68.8062V78.0153C102.496 78.1839 102.357 78.3217 102.186 78.3217Z" fill="#7193ED"/>
<path opacity="0.2" d="M79.7016 78.322C79.5299 78.322 79.3914 78.1852 79.3914 78.0156V68.8065C79.3914 68.6369 79.5299 68.5001 79.7016 68.5001C79.8733 68.5001 80.0119 68.6369 80.0119 68.8065V78.0156C80.0119 78.1842 79.8733 78.322 79.7016 78.322Z" fill="#7193ED"/>
<path opacity="0.2" d="M81.994 78.3218C81.8223 78.3218 81.6837 78.1849 81.6837 78.0154V68.8062C81.6837 68.6367 81.8223 68.4998 81.994 68.4998C82.1657 68.4998 82.3043 68.6367 82.3043 68.8062V78.0154C82.3043 78.184 82.1647 78.3218 81.994 78.3218Z" fill="#7193ED"/>
<path opacity="0.2" d="M85.3145 78.3218C85.1428 78.3218 85.0043 78.1849 85.0043 78.0154V68.8062C85.0043 68.6367 85.1428 68.4998 85.3145 68.4998C85.4862 68.4998 85.6248 68.6367 85.6248 68.8062V78.0154C85.6248 78.184 85.4862 78.3218 85.3145 78.3218Z" fill="#7193ED"/>
<path opacity="0.2" d="M88.9786 78.3218C88.8069 78.3218 88.6683 78.1849 88.6683 78.0154V68.8062C88.6683 68.6367 88.8069 68.4998 88.9786 68.4998C89.1503 68.4998 89.2889 68.6367 89.2889 68.8062V78.0154C89.2889 78.184 89.1503 78.3218 88.9786 78.3218Z" fill="#7193ED"/>
<path opacity="0.2" d="M92.9859 78.3218C92.8142 78.3218 92.6757 78.1849 92.6757 78.0154V68.8062C92.6757 68.6367 92.8142 68.4998 92.9859 68.4998C93.1576 68.4998 93.2962 68.6367 93.2962 68.8062V78.0154C93.2962 78.184 93.1576 78.3218 92.9859 78.3218Z" fill="#7193ED"/>
<path opacity="0.2" d="M97.3358 78.3218C97.1641 78.3218 97.0255 78.1849 97.0255 78.0154V68.8062C97.0255 68.6367 97.1641 68.4998 97.3358 68.4998C97.5075 68.4998 97.646 68.6367 97.646 68.8062V78.0154C97.646 78.184 97.5075 78.3218 97.3358 78.3218Z" fill="#7193ED"/>
<path opacity="0.2" d="M124.67 68.4988C124.841 68.4988 124.98 68.6356 124.98 68.8052V78.0143C124.98 78.1839 124.841 78.3208 124.67 78.3208C124.498 78.3208 124.359 78.1839 124.359 78.0143V68.8052C124.358 68.6356 124.498 68.4988 124.67 68.4988Z" fill="#7193ED"/>
<path opacity="0.2" d="M122.377 68.4988C122.549 68.4988 122.687 68.6356 122.687 68.8052V78.0143C122.687 78.1839 122.549 78.3208 122.377 78.3208C122.205 78.3208 122.067 78.1839 122.067 78.0143V68.8052C122.067 68.6356 122.205 68.4988 122.377 68.4988Z" fill="#7193ED"/>
<path opacity="0.2" d="M119.057 68.4988C119.228 68.4988 119.367 68.6356 119.367 68.8052V78.0143C119.367 78.1839 119.228 78.3208 119.057 78.3208C118.885 78.3208 118.746 78.1839 118.746 78.0143V68.8052C118.745 68.6356 118.885 68.4988 119.057 68.4988Z" fill="#7193ED"/>
<path opacity="0.2" d="M115.393 68.4988C115.564 68.4988 115.703 68.6356 115.703 68.8052V78.0143C115.703 78.1839 115.564 78.3208 115.393 78.3208C115.221 78.3208 115.082 78.1839 115.082 78.0143V68.8052C115.081 68.6356 115.221 68.4988 115.393 68.4988Z" fill="#7193ED"/>
<path opacity="0.2" d="M111.385 68.4988C111.557 68.4988 111.695 68.6356 111.695 68.8052V78.0143C111.695 78.1839 111.557 78.3208 111.385 78.3208C111.214 78.3208 111.075 78.1839 111.075 78.0143V68.8052C111.074 68.6356 111.214 68.4988 111.385 68.4988Z" fill="#7193ED"/>
<path opacity="0.2" d="M107.034 68.4988C107.206 68.4988 107.345 68.6356 107.345 68.8052V78.0143C107.345 78.1839 107.206 78.3208 107.034 78.3208C106.863 78.3208 106.724 78.1839 106.724 78.0143V68.8052C106.724 68.6356 106.864 68.4988 107.034 68.4988Z" fill="#7193ED"/>
<path opacity="0.2" d="M126 68.8627V78.0094C126 78.5547 125.551 78.999 124.998 78.999H79.3713C78.9285 78.999 78.5509 78.7144 78.4214 78.3217H103.387V68.5007H107.593V78.3217H108.814V68.5007H111.935V78.3217H112.344V68.5007H115.668V78.3217H115.939V68.5007H125.932C125.976 68.6118 126 68.7338 126 68.8627Z" fill="#7193ED"/>
<path opacity="0.2" d="M124.999 67.873H79.3723C78.8201 67.873 78.3702 68.3133 78.3702 68.8627V78.0094C78.3702 78.1175 78.3873 78.2226 78.4214 78.3207H79.4015V68.4988H79.9778V78.3207H81.4026V68.4998H82.3053V78.3207H84.662V68.4998H85.9482V78.3207H87.9173V68.4998H89.2889V78.3207H91.2579V68.4998H93.3947V78.3207H94.3797V68.4998H97.635V78.3207H98.129V68.4998H125.932C125.784 68.1309 125.421 67.873 124.999 67.873Z" fill="white"/>
<path d="M121.678 67.996H74.6352C74.4736 67.996 74.342 67.8661 74.342 67.7064V57.1606C74.342 57.0009 74.4736 56.871 74.6352 56.871H121.678C121.839 56.871 121.971 57.0009 121.971 57.1606V67.7064C121.97 67.8661 121.839 67.996 121.678 67.996Z" fill="#E8EEFC"/>
<path opacity="0.2" d="M98.1561 67.3197C97.9844 67.3197 97.8458 67.1829 97.8458 67.0133V57.8042C97.8458 57.6346 97.9844 57.4977 98.1561 57.4977C98.3278 57.4977 98.4664 57.6356 98.4664 57.8042V67.0133C98.4664 67.1829 98.3268 67.3197 98.1561 67.3197Z" fill="#7193ED"/>
<path opacity="0.2" d="M75.6721 67.32C75.5004 67.32 75.3618 67.1832 75.3618 67.0136V57.8045C75.3618 57.6349 75.5004 57.498 75.6721 57.498C75.8438 57.498 75.9824 57.6359 75.9824 57.8045V67.0136C75.9824 67.1832 75.8438 67.32 75.6721 67.32Z" fill="#7193ED"/>
<path opacity="0.2" d="M77.9635 67.3198C77.7918 67.3198 77.6532 67.1829 77.6532 67.0134V57.8042C77.6532 57.6346 77.7918 57.4978 77.9635 57.4978C78.1352 57.4978 78.2737 57.6356 78.2737 57.8042V67.0134C78.2747 67.1829 78.1352 67.3198 77.9635 67.3198Z" fill="#7193ED"/>
<path opacity="0.2" d="M81.285 67.3198C81.1133 67.3198 80.9747 67.1829 80.9747 67.0134V57.8042C80.9747 57.6346 81.1133 57.4978 81.285 57.4978C81.4567 57.4978 81.5953 57.6356 81.5953 57.8042V67.0134C81.5953 67.1829 81.4567 67.3198 81.285 67.3198Z" fill="#7193ED"/>
<path opacity="0.2" d="M84.9491 67.3198C84.7774 67.3198 84.6388 67.1829 84.6388 67.0134V57.8042C84.6388 57.6346 84.7774 57.4978 84.9491 57.4978C85.1208 57.4978 85.2593 57.6356 85.2593 57.8042V67.0134C85.2593 67.1829 85.1208 67.3198 84.9491 67.3198Z" fill="#7193ED"/>
<path opacity="0.2" d="M88.9564 67.3198C88.7847 67.3198 88.6461 67.1829 88.6461 67.0134V57.8042C88.6461 57.6346 88.7847 57.4978 88.9564 57.4978C89.1281 57.4978 89.2667 57.6356 89.2667 57.8042V67.0134C89.2667 67.1829 89.1271 67.3198 88.9564 67.3198Z" fill="#7193ED"/>
<path opacity="0.2" d="M93.3062 67.3198C93.1345 67.3198 92.996 67.1829 92.996 67.0134V57.8042C92.996 57.6346 93.1345 57.4978 93.3062 57.4978C93.4779 57.4978 93.6165 57.6356 93.6165 57.8042V67.0134C93.6165 67.1829 93.4779 67.3198 93.3062 67.3198Z" fill="#7193ED"/>
<path opacity="0.2" d="M120.639 57.4968C120.811 57.4968 120.949 57.6346 120.949 57.8032V67.0123C120.949 67.1819 120.81 67.3187 120.639 67.3187C120.467 67.3187 120.329 67.1819 120.329 67.0123V57.8042C120.329 57.6346 120.468 57.4968 120.639 57.4968Z" fill="#7193ED"/>
<path opacity="0.2" d="M118.348 57.4968C118.519 57.4968 118.658 57.6346 118.658 57.8032V67.0123C118.658 67.1819 118.519 67.3187 118.348 67.3187C118.176 67.3187 118.037 67.1819 118.037 67.0123V57.8042C118.037 57.6346 118.176 57.4968 118.348 57.4968Z" fill="#7193ED"/>
<path opacity="0.2" d="M115.026 57.4968C115.198 57.4968 115.336 57.6346 115.336 57.8032V67.0123C115.336 67.1819 115.198 67.3187 115.026 67.3187C114.854 67.3187 114.716 67.1819 114.716 67.0123V57.8042C114.716 57.6346 114.855 57.4968 115.026 57.4968Z" fill="#7193ED"/>
<path opacity="0.2" d="M111.362 57.4968C111.534 57.4968 111.672 57.6346 111.672 57.8032V67.0123C111.672 67.1819 111.534 67.3187 111.362 67.3187C111.19 67.3187 111.052 67.1819 111.052 67.0123V57.8042C111.052 57.6346 111.191 57.4968 111.362 57.4968Z" fill="#7193ED"/>
<path opacity="0.2" d="M107.356 57.4968C107.527 57.4968 107.666 57.6346 107.666 57.8032V67.0123C107.666 67.1819 107.526 67.3187 107.356 67.3187C107.184 67.3187 107.045 67.1819 107.045 67.0123V57.8042C107.044 57.6346 107.184 57.4968 107.356 57.4968Z" fill="#7193ED"/>
<path opacity="0.2" d="M103.005 57.4968C103.177 57.4968 103.315 57.6346 103.315 57.8032V67.0123C103.315 67.1819 103.176 67.3187 103.005 67.3187C102.833 67.3187 102.695 67.1819 102.695 67.0123V57.8042C102.695 57.6346 102.834 57.4968 103.005 57.4968Z" fill="#7193ED"/>
<path opacity="0.2" d="M121.971 57.8607V67.0073C121.971 67.5527 121.522 67.997 120.968 67.997H75.3419C74.899 67.997 74.5215 67.7124 74.392 67.3197H99.3581V57.4987H103.563V67.3197H104.784V57.4987H107.906V67.3197H108.315V57.4987H111.638V67.3197H111.909V57.4987H121.902C121.946 57.6108 121.971 57.7327 121.971 57.8607Z" fill="#7193ED"/>
<path opacity="0.2" d="M120.969 56.8723H75.3428C74.7905 56.8723 74.3407 57.3126 74.3407 57.862V67.0086C74.3407 67.1167 74.3578 67.2218 74.3919 67.32H75.3719V57.497H75.9483V67.319H77.3731V57.498H78.2758V67.319H80.6324V57.498H81.9187V67.319H83.8877V57.498H85.2604V67.319H87.2294V57.498H89.3662V67.319H90.3512V57.498H93.6065V67.319H94.1005V57.498H121.903C121.755 57.1291 121.391 56.8723 120.969 56.8723Z" fill="white"/>
<path d="M111.689 56.9256L90.1765 52.5674L67.4978 47.9693C66.817 47.8334 66.3782 47.173 66.5168 46.5007L67.5681 41.4385L68.277 38.0382C68.4145 37.3659 69.0833 36.9326 69.763 37.0734L113.954 46.0297C114.635 46.1655 115.074 46.822 114.933 47.4933L113.175 55.9607C113.032 56.6311 112.369 57.0614 111.689 56.9256Z" fill="#E8EEFC"/>
<path opacity="0.2" d="M89.7307 51.7851C89.563 51.7513 89.4546 51.5887 89.4887 51.4231L91.3634 42.4014C91.3975 42.2358 91.5622 42.1287 91.7299 42.1624C91.8976 42.1961 92.006 42.3587 91.9719 42.5243L90.0972 51.5461C90.0631 51.7117 89.8984 51.8188 89.7307 51.7851Z" fill="#7193ED"/>
<path opacity="0.2" d="M67.7055 47.3208C67.5379 47.287 67.4294 47.1244 67.4636 46.9588L69.3382 37.9371C69.3724 37.7715 69.537 37.6644 69.7047 37.6981C69.8724 37.7318 69.9809 37.8944 69.9467 38.06L68.072 47.0818C68.0379 47.2474 67.8742 47.3545 67.7055 47.3208Z" fill="#7193ED"/>
<path opacity="0.2" d="M69.9508 47.7759C69.7831 47.7422 69.6747 47.5796 69.7088 47.414L71.5835 38.3922C71.6176 38.2266 71.7823 38.1195 71.95 38.1532C72.1176 38.187 72.2261 38.3496 72.192 38.5152L70.3173 47.5369C70.2831 47.7025 70.1195 47.8096 69.9508 47.7759Z" fill="#7193ED"/>
<path opacity="0.2" d="M73.2041 48.4353C73.0364 48.4016 72.928 48.239 72.9621 48.0734L74.8368 39.0516C74.8709 38.886 75.0356 38.7789 75.2033 38.8127C75.3709 38.8464 75.4794 39.009 75.4452 39.1746L73.5706 48.1963C73.5364 48.3619 73.3728 48.469 73.2041 48.4353Z" fill="#7193ED"/>
<path opacity="0.2" d="M76.7937 49.1622C76.626 49.1285 76.5176 48.9658 76.5517 48.8003L78.4264 39.7785C78.4605 39.6129 78.6252 39.5058 78.7929 39.5395C78.9605 39.5732 79.069 39.7359 79.0348 39.9015L77.1602 48.9232C77.126 49.0898 76.9614 49.1969 76.7937 49.1622Z" fill="#7193ED"/>
<path opacity="0.2" d="M80.7187 49.9585C80.551 49.9247 80.4426 49.7621 80.4767 49.5965L82.3514 40.5748C82.3855 40.4092 82.5502 40.3021 82.7179 40.3358C82.8856 40.3695 82.994 40.5321 82.9599 40.6977L81.0852 49.7195C81.0511 49.8851 80.8864 49.9922 80.7187 49.9585Z" fill="#7193ED"/>
<path opacity="0.2" d="M84.9802 50.8222C84.8125 50.7884 84.7041 50.6258 84.7382 50.4602L86.6129 41.4385C86.647 41.2729 86.8117 41.1658 86.9794 41.1995C87.1471 41.2332 87.2555 41.3958 87.2214 41.5614L85.3467 50.5832C85.3126 50.7488 85.1479 50.8559 84.9802 50.8222Z" fill="#7193ED"/>
<path opacity="0.2" d="M113.755 46.6266C113.923 46.6604 114.031 46.823 113.997 46.9886L112.122 56.0103C112.088 56.1759 111.923 56.283 111.756 56.2493C111.588 56.2156 111.48 56.053 111.514 55.8874L113.388 46.8656C113.423 46.699 113.587 46.5919 113.755 46.6266Z" fill="#7193ED"/>
<path opacity="0.2" d="M111.51 46.1714C111.677 46.2052 111.786 46.3678 111.752 46.5334L109.877 55.5551C109.843 55.7207 109.678 55.8278 109.51 55.7941C109.343 55.7604 109.234 55.5978 109.268 55.4322L111.143 46.4104C111.177 46.2438 111.342 46.1367 111.51 46.1714Z" fill="#7193ED"/>
<path opacity="0.2" d="M108.256 45.512C108.424 45.5457 108.532 45.7084 108.498 45.874L106.624 54.8957C106.59 55.0613 106.425 55.1684 106.257 55.1347C106.089 55.101 105.981 54.9383 106.015 54.7727L107.89 45.751C107.924 45.5844 108.089 45.4773 108.256 45.512Z" fill="#7193ED"/>
<path opacity="0.2" d="M104.668 44.7842C104.835 44.8179 104.944 44.9806 104.91 45.1462L103.035 54.1679C103.001 54.3335 102.836 54.4406 102.669 54.4069C102.501 54.3732 102.392 54.2105 102.427 54.0449L104.301 45.0232C104.335 44.8576 104.499 44.7505 104.668 44.7842Z" fill="#7193ED"/>
<path opacity="0.2" d="M100.742 43.989C100.909 44.0227 101.018 44.1853 100.984 44.3509L99.109 53.3726C99.0749 53.5382 98.9102 53.6453 98.7425 53.6116C98.5749 53.5779 98.4664 53.4153 98.5005 53.2497L100.375 44.2279C100.41 44.0613 100.574 43.9542 100.742 43.989Z" fill="#7193ED"/>
<path opacity="0.2" d="M96.4812 43.1252C96.6489 43.159 96.7573 43.3216 96.7232 43.4872L94.8485 52.5089C94.8144 52.6745 94.6497 52.7816 94.482 52.7479C94.3143 52.7142 94.2059 52.5516 94.24 52.386L96.1147 43.3642C96.1489 43.1976 96.3125 43.0905 96.4812 43.1252Z" fill="#7193ED"/>
<path opacity="0.2" d="M114.985 47.2474L113.123 56.2076C113.012 56.7421 112.482 57.0872 111.941 56.9781L67.2458 47.9197C66.812 47.8314 66.5007 47.4784 66.4525 47.0669L90.9085 52.024L92.9077 42.4033L97.0276 43.2383L95.0284 52.8589L96.2243 53.1009L98.2235 43.4802L101.281 44.1L99.2818 53.7207L99.6814 53.802L101.681 44.1813L104.937 44.8417L102.938 54.4624L103.203 54.5159L105.202 44.8953L114.99 46.8795C115.012 46.9965 115.011 47.1214 114.985 47.2474Z" fill="#7193ED"/>
<path opacity="0.2" d="M114.205 46.0793L69.51 37.0208C68.9687 36.9108 68.4396 37.2539 68.3271 37.7913L66.4655 46.7516C66.4434 46.8577 66.4384 46.9638 66.4525 47.0669L67.4124 47.2613L69.4116 37.6396L69.9769 37.7537L67.9777 47.3753L69.3734 47.6579L71.3726 38.0373L72.2562 38.2167L70.257 47.8374L72.5655 48.3055L74.5646 38.6848L75.8248 38.9406L73.8256 48.5613L75.7545 48.952L77.7537 39.3313L79.0982 39.604L77.099 49.2247L79.0279 49.6154L81.0271 39.9947L83.1206 40.4191L81.1214 50.0398L82.0864 50.2351L84.0856 40.6145L87.2746 41.261L85.2754 50.8817L85.7594 50.9799L87.7586 41.3592L114.994 46.8795C114.923 46.4878 114.618 46.1636 114.205 46.0793Z" fill="white"/>
<path d="M77.1944 57.8389L48.1356 86.8725L45.4797 89.525C44.9927 90.0149 44.1995 90.0189 43.7035 89.534L37.481 83.4613C36.985 82.9804 36.981 82.192 37.468 81.7071L45.2769 73.9021L69.1827 50.0219C69.6697 49.5321 70.4679 49.5281 70.964 50.0091L77.1864 56.0817C77.6774 56.5656 77.6814 57.349 77.1944 57.8389Z" fill="#E8EEFC"/>
<path opacity="0.2" d="M60.8515 73.2069C60.731 73.3269 60.5342 73.3289 60.4127 73.2099L53.7806 66.7356C53.6591 66.6166 53.6571 66.4223 53.7776 66.3023C53.8981 66.1823 54.0949 66.1803 54.2164 66.2993L60.8485 72.7736C60.971 72.8916 60.972 73.086 60.8515 73.2069Z" fill="#7193ED"/>
<path opacity="0.2" d="M45.0459 88.9985C44.9254 89.1185 44.7286 89.1205 44.6071 89.0015L37.974 82.5272C37.8525 82.4082 37.8505 82.2138 37.971 82.0939C38.0915 81.9739 38.2883 81.9719 38.4098 82.0909L45.0419 88.5652C45.1654 88.6842 45.1664 88.8785 45.0459 88.9985Z" fill="#7193ED"/>
<path opacity="0.2" d="M46.6574 87.3891C46.537 87.5091 46.3401 87.511 46.2186 87.392L39.5865 80.9178C39.465 80.7988 39.463 80.6044 39.5835 80.4844C39.704 80.3634 39.9008 80.3625 40.0223 80.4815L46.6544 86.9557C46.7769 87.0747 46.7779 87.2681 46.6574 87.3891Z" fill="#7193ED"/>
<path opacity="0.2" d="M48.9921 85.0568C48.8716 85.1768 48.6748 85.1788 48.5533 85.0598L41.9201 78.5845C41.7986 78.4655 41.7966 78.2712 41.9171 78.1512C42.0376 78.0312 42.2344 78.0292 42.3559 78.1482L48.988 84.6225C49.1116 84.7415 49.1126 84.9358 48.9921 85.0568Z" fill="#7193ED"/>
<path opacity="0.2" d="M51.5676 82.4826C51.4471 82.6026 51.2503 82.6045 51.1288 82.4855L44.4967 76.0113C44.3752 75.8923 44.3732 75.6979 44.4937 75.5779C44.6142 75.4579 44.811 75.456 44.9325 75.575L51.5646 82.0492C51.6871 82.1682 51.6881 82.3626 51.5676 82.4826Z" fill="#7193ED"/>
<path opacity="0.2" d="M54.3841 79.6684C54.2636 79.7883 54.0668 79.7903 53.9453 79.6713L47.3132 73.1971C47.1917 73.0781 47.1897 72.8837 47.3102 72.7637C47.4307 72.6427 47.6275 72.6418 47.749 72.7607L54.3811 79.235C54.5036 79.354 54.5046 79.5474 54.3841 79.6684Z" fill="#7193ED"/>
<path opacity="0.2" d="M57.4426 76.6132C57.3221 76.7332 57.1253 76.7352 57.0038 76.6162L50.3717 70.1419C50.2502 70.0229 50.2482 69.8285 50.3687 69.7085C50.4892 69.5886 50.686 69.5866 50.8075 69.7056L57.4396 76.1798C57.5621 76.2978 57.5631 76.4922 57.4426 76.6132Z" fill="#7193ED"/>
<path opacity="0.2" d="M69.5823 50.5098C69.7028 50.3898 69.8996 50.3878 70.0211 50.5068L76.6532 56.9811C76.7747 57.1001 76.7767 57.2945 76.6562 57.4145C76.5357 57.5354 76.3389 57.5364 76.2174 57.4174L69.5853 50.9432C69.4628 50.8242 69.4618 50.6298 69.5823 50.5098Z" fill="#7193ED"/>
<path opacity="0.2" d="M67.9706 52.1192C68.0911 51.9992 68.2879 51.9972 68.4094 52.1162L75.0415 58.5905C75.164 58.7095 75.165 58.9038 75.0445 59.0238C74.924 59.1438 74.7272 59.1458 74.6057 59.0268L67.9736 52.5525C67.8511 52.4335 67.8501 52.2392 67.9706 52.1192Z" fill="#7193ED"/>
<path opacity="0.2" d="M65.6361 54.4515C65.7566 54.3305 65.9534 54.3295 66.0749 54.4485L72.707 60.9228C72.8285 61.0418 72.8306 61.2361 72.7101 61.3561C72.5896 61.4761 72.3928 61.4781 72.2713 61.3591L65.6391 54.8848C65.5166 54.7668 65.5156 54.5724 65.6361 54.4515Z" fill="#7193ED"/>
<path opacity="0.2" d="M63.0606 57.0257C63.1811 56.9048 63.3779 56.9038 63.4994 57.0228L70.1315 63.497C70.253 63.616 70.255 63.8104 70.1345 63.9304C70.014 64.0504 69.8172 64.0524 69.6957 63.9334L63.0636 57.4591C62.9411 57.3401 62.9401 57.1457 63.0606 57.0257Z" fill="#7193ED"/>
<path opacity="0.2" d="M60.244 59.84C60.3645 59.72 60.5613 59.718 60.6828 59.837L67.315 66.3113C67.4365 66.4302 67.4385 66.6246 67.318 66.7446C67.1975 66.8646 67.0007 66.8666 66.8792 66.7476L60.2471 60.2733C60.1246 60.1543 60.1235 59.9599 60.244 59.84Z" fill="#7193ED"/>
<path opacity="0.2" d="M57.1856 62.8951C57.3061 62.7742 57.5029 62.7732 57.6244 62.8922L64.2565 69.3664C64.378 69.4854 64.38 69.6798 64.2595 69.7998C64.139 69.9198 63.9422 69.9217 63.8207 69.8027L57.1886 63.3285C57.0661 63.2095 57.0651 63.0161 57.1856 62.8951Z" fill="#7193ED"/>
<path opacity="0.2" d="M70.7802 49.8305L77.3671 56.2602C77.7597 56.6439 77.7637 57.2716 77.3751 57.6594L45.302 89.7065C44.9907 90.0169 44.5208 90.0823 44.1462 89.8979L61.696 72.3621L54.6231 65.4584L57.5792 62.5044L64.6521 69.4081L65.5106 68.5503L58.4377 61.6467L60.6317 59.4542L67.7046 66.3578L67.9918 66.0713L60.9188 59.1676L63.2564 56.8324L70.3293 63.736L70.5201 63.5456L63.4472 56.642L70.4719 49.6233C70.5824 49.6709 70.6878 49.7393 70.7802 49.8305Z" fill="#7193ED"/>
<path opacity="0.2" d="M69.3634 49.8385L37.2892 81.8856C36.9006 82.2733 36.9026 82.899 37.2972 83.2847L43.8842 89.7144C43.9625 89.7907 44.0499 89.8522 44.1452 89.8978L44.8341 89.2097L37.7611 82.304L38.1668 81.8994L45.2407 88.8041L46.2418 87.8035L39.1689 80.8999L39.8035 80.2663L46.8764 87.1699L48.5332 85.5149L41.4603 78.6112L42.365 77.7079L49.4379 84.6115L50.8216 83.2282L43.7476 76.3246L44.7126 75.3607L51.7855 82.2644L53.1692 80.8811L46.0962 73.9774L47.5984 72.4761L54.6713 79.3797L55.3631 78.6886L48.2902 71.7849L50.5786 69.4983L57.6515 76.4019L57.9989 76.0549L50.926 69.1512L70.4709 49.6233C70.1014 49.4676 69.6606 49.542 69.3634 49.8385Z" fill="white"/>
<path opacity="0.2" d="M77.1944 57.8389L48.1355 86.8725C46.1605 82.0651 45.4666 77.4194 45.2769 73.9021L69.1826 50.0219C69.6696 49.5321 70.4679 49.5281 70.9639 50.0091L77.1864 56.0817C77.6774 56.5656 77.6814 57.349 77.1944 57.8389Z" fill="#7193ED"/>
<path opacity="0.2" d="M99.3571 79.0287H98.4644C98.4644 79.0287 98.5246 86.1317 96.7263 89.8959L96.1791 89.998H78.5309C77.837 89.998 77.2717 89.4447 77.2717 88.7585V80.1185C77.2717 79.4283 77.837 78.875 78.5309 78.875H79.0912C78.6684 78.6747 78.3712 78.2493 78.3712 77.7555V69.1155C78.3712 68.6217 78.6684 68.1953 79.0912 67.996H75.5989C74.905 67.996 74.3438 67.4427 74.3438 66.7565V58.1115C74.3438 57.4263 74.904 56.872 75.5989 56.872H77.9917C77.5689 56.6717 77.2717 56.2463 77.2717 55.7525V47.1125C77.2717 46.4273 77.837 45.869 78.5309 45.869H81.6828C81.6828 45.869 91.6776 49.9317 95.7483 57.0297H93.6186C93.6186 57.0297 97.6973 62.3358 97.5165 67.871H99.3581C99.3571 67.871 100.832 73.1564 99.3571 79.0287Z" fill="#7193ED"/>
<path d="M88.1312 66.218C88.1312 66.3212 88.1312 66.4243 88.1271 66.5274C88.1271 66.8259 88.1201 67.1234 88.1081 67.4179C88.0639 68.5513 87.9625 69.6629 87.8028 70.7478C87.7727 70.958 87.7396 71.1632 87.7064 71.3695C87.6914 71.4538 87.6763 71.5351 87.6653 71.6164C87.591 72.0289 87.5126 72.4375 87.4192 72.8381C87.2556 73.6076 87.0578 74.3582 86.8308 75.094C86.7676 75.3032 86.7043 75.5095 86.633 75.7158C86.6069 75.7971 86.5808 75.8774 86.5507 75.9547C86.5065 76.0906 86.4573 76.2274 86.4091 76.3633C86.0697 77.3123 85.6862 78.2255 85.2574 79.0972C85.161 79.2955 85.0636 79.4908 84.9592 79.6822C84.9552 79.6931 84.9481 79.704 84.9441 79.715C84.903 79.7963 84.8618 79.8736 84.8216 79.951C84.2854 80.9446 83.696 81.8826 83.0514 82.7553C82.8988 82.9685 82.7381 83.1747 82.5815 83.377C81.7912 84.3746 80.9387 85.276 80.022 86.0702C79.776 86.2874 79.527 86.4937 79.2689 86.692C78.4455 87.3355 77.581 87.8948 76.6793 88.3629C76.2355 88.5909 75.7857 88.7972 75.3268 88.9806C73.669 89.643 71.9068 90 70.0844 90C68.0089 90 66.0197 89.5399 64.1641 88.6901C64.1601 88.6901 64.1601 88.6861 64.1601 88.6861C57.1033 85.4554 52.0396 76.6171 52.0396 66.219C52.0396 55.8209 57.1033 46.9787 64.1601 43.748C64.1601 43.748 64.1601 43.748 64.1641 43.748C64.6933 43.505 65.2295 43.2918 65.7808 43.1183C67.1594 42.6691 68.6013 42.4341 70.0844 42.4341C71.9058 42.4341 73.661 42.7911 75.3188 43.4535C75.3298 43.4574 75.3368 43.4604 75.3489 43.4644C75.7736 43.6339 76.1943 43.8253 76.608 44.0385C76.6301 44.0494 76.6492 44.0603 76.6713 44.0712C77.4384 44.4689 78.1845 44.932 78.8954 45.4625C79.0179 45.5507 79.1414 45.6469 79.2639 45.7421C79.5169 45.9375 79.767 46.1427 80.013 46.3599C80.017 46.3599 80.017 46.3639 80.017 46.3639C80.8253 47.0669 81.5894 47.8543 82.3013 48.715C82.3947 48.8251 82.4841 48.9391 82.5774 49.0571C82.7381 49.2594 82.8937 49.4656 83.0504 49.6788C83.1287 49.7859 83.207 49.892 83.2773 49.9991C83.7241 50.6248 84.1418 51.2833 84.5334 51.9675C84.671 52.2144 84.8096 52.4643 84.9391 52.7182C85.0475 52.9204 85.152 53.1267 85.2524 53.3359C85.5657 53.9725 85.8559 54.627 86.1209 55.3043C86.3037 55.7684 86.4714 56.2394 86.631 56.7173C86.6983 56.9236 86.7656 57.1299 86.8288 57.3391C86.8399 57.3718 86.8479 57.4055 86.859 57.4383C86.9564 57.7625 87.0487 58.0897 87.1351 58.4209C87.362 59.2787 87.5528 60.1612 87.7054 61.0626C87.7386 61.2609 87.7687 61.4672 87.7988 61.6695C87.8028 61.6735 87.8028 61.6764 87.8028 61.6804C87.8249 61.8391 87.847 62.0007 87.8661 62.1623C88.0267 63.38 88.1161 64.6315 88.1271 65.9047C88.1312 66.0088 88.1312 66.1149 88.1312 66.218Z" fill="#E8EEFC"/>
<path d="M88.1315 66.2183C88.1315 66.3215 88.1315 66.4246 88.1274 66.5277C88.1274 66.8262 88.1204 67.1237 88.1084 67.4182C88.0642 68.5516 87.9628 69.6632 87.8031 70.7481C87.773 70.9583 87.7398 71.1635 87.7067 71.3698C87.6917 71.4541 87.6766 71.5354 87.6655 71.6167C87.5912 72.0292 87.5129 72.4378 87.4195 72.8384C87.2559 73.6079 87.0581 74.3585 86.8311 75.0943C86.7679 75.3036 86.7046 75.5098 86.6333 75.7161C86.6072 75.7974 86.5811 75.8777 86.551 75.955C86.5068 76.0909 86.4576 76.2277 86.4094 76.3636C86.07 77.3126 85.6865 78.2258 85.2577 79.0975C85.1613 79.2958 85.0639 79.4912 84.9595 79.6825C84.9555 79.6934 84.9484 79.7044 84.9444 79.7153C84.9032 79.7966 84.8621 79.8739 84.8219 79.9513C84.2857 80.9449 83.6963 81.8829 83.0517 82.7556C82.8991 82.9688 82.7384 83.175 82.5818 83.3773C81.7915 84.3749 80.939 85.2763 80.0223 86.0705C79.7763 86.2877 79.5273 86.494 79.2692 86.6923C78.4458 87.3358 77.5813 87.8951 76.6796 88.3632C76.2358 88.5912 75.786 88.7975 75.3271 88.9809C73.6693 89.6433 71.9071 90.0003 70.0846 90.0003H65.2519C64.7267 90.0003 64.2869 89.6324 64.1865 89.1426C64.1715 89.0722 64.1644 88.9988 64.1644 88.9254V43.5083C64.1644 43.4349 64.1715 43.3616 64.1865 43.2911C64.1865 43.2842 64.1905 43.2763 64.1905 43.2693C64.302 42.7914 64.7348 42.4344 65.2529 42.4344H70.0856C71.9071 42.4344 73.6623 42.7914 75.3201 43.4538C75.3311 43.4577 75.3381 43.4607 75.3502 43.4647C75.7749 43.6342 76.1956 43.8256 76.6093 44.0388C76.6314 44.0497 76.6505 44.0606 76.6726 44.0715C77.4397 44.4692 78.1858 44.9323 78.8967 45.4628C79.0192 45.551 79.1427 45.6472 79.2652 45.7424C79.5182 45.9378 79.7682 46.143 80.0143 46.3602C80.0183 46.3602 80.0183 46.3642 80.0183 46.3642C80.8266 47.0672 81.5907 47.8546 82.3026 48.7153C82.396 48.8254 82.4854 48.9394 82.5787 49.0574C82.7394 49.2597 82.895 49.466 83.0517 49.6791C83.13 49.7862 83.2083 49.8923 83.2786 49.9994C83.7254 50.6252 84.1431 51.2836 84.5347 51.9678C84.6723 52.2147 84.8109 52.4646 84.9404 52.7185C85.0488 52.9207 85.1533 53.127 85.2537 53.3362C85.567 53.9729 85.8571 54.6273 86.1222 55.3046C86.305 55.7687 86.4727 56.2397 86.6323 56.7177C86.6996 56.9239 86.7669 57.1302 86.8301 57.3394C86.8412 57.3721 86.8492 57.4058 86.8603 57.4386C86.9577 57.7628 87.05 58.0901 87.1364 58.4213C87.3633 59.279 87.5541 60.1615 87.7067 61.0629C87.7398 61.2612 87.77 61.4675 87.8001 61.6698C87.8041 61.6738 87.8041 61.6767 87.8041 61.6807C87.8262 61.8394 87.8483 62.001 87.8674 62.1626C88.028 63.3803 88.1174 64.6318 88.1284 65.905C88.1315 66.0091 88.1315 66.1152 88.1315 66.2183Z" fill="#E8EEFC"/>
<path opacity="0.2" d="M88.1311 66.2181C88.1311 66.3212 88.1311 66.4243 88.1271 66.5274H66.096C65.9243 66.5274 65.7827 66.3876 65.7827 66.2151C65.7827 66.0455 65.9243 65.9057 66.096 65.9057H88.1271C88.1311 66.0088 88.1311 66.1149 88.1311 66.2181Z" fill="#7193ED"/>
<path opacity="0.2" d="M76.6746 44.0713H66.0963C66.0481 44.0713 65.9999 44.0604 65.9588 44.0385C65.8543 43.9909 65.7841 43.8878 65.7841 43.7629C65.7841 43.6161 65.8885 43.4941 66.023 43.4644C66.0491 43.4575 66.0712 43.4535 66.0973 43.4535H75.3231C75.3341 43.4575 75.3411 43.4604 75.3532 43.4644C75.7779 43.634 76.1987 43.8253 76.6123 44.0385C76.6334 44.0495 76.6525 44.0604 76.6746 44.0713Z" fill="#7193ED"/>
<path opacity="0.2" d="M80.0159 46.3599H66.096C65.9243 46.3599 65.7827 46.2241 65.7827 46.0505C65.7827 45.881 65.9243 45.7411 66.096 45.7411H79.2669C79.5209 45.9365 79.7699 46.1428 80.0159 46.3599Z" fill="#7193ED"/>
<path opacity="0.2" d="M83.0534 49.6789H66.096C65.9243 49.6789 65.7827 49.5391 65.7827 49.3665C65.7827 49.1969 65.9243 49.0571 66.096 49.0571H82.5794C82.7401 49.2594 82.8967 49.4657 83.0534 49.6789Z" fill="#7193ED"/>
<path opacity="0.2" d="M85.2553 53.3359H66.097C65.9253 53.3359 65.7837 53.1961 65.7837 53.0265C65.7837 52.854 65.9253 52.7172 66.097 52.7172H84.942C85.0495 52.9204 85.1539 53.1267 85.2553 53.3359Z" fill="#7193ED"/>
<path opacity="0.2" d="M86.8308 57.3391H66.096C65.9243 57.3391 65.7827 57.1993 65.7827 57.0267C65.7827 56.8572 65.9243 56.7173 66.096 56.7173H86.633C86.7003 56.9236 86.7675 57.1299 86.8308 57.3391Z" fill="#7193ED"/>
<path opacity="0.2" d="M87.8038 61.6814H66.096C66.0699 61.6814 66.0478 61.6774 66.0217 61.6705C65.8871 61.6407 65.7827 61.5198 65.7827 61.372C65.7827 61.2024 65.9243 61.0626 66.096 61.0626H87.7064C87.7395 61.2609 87.7696 61.4672 87.7998 61.6695C87.8038 61.6744 87.8038 61.6774 87.8038 61.6814Z" fill="#7193ED"/>
<path opacity="0.2" d="M76.6813 88.3619C76.2375 88.59 75.7876 88.7962 75.3288 88.9797H66.096C65.9243 88.9797 65.7827 88.8399 65.7827 88.6703C65.7827 88.4977 65.9243 88.3609 66.096 88.3609H76.6813V88.3619Z" fill="#7193ED"/>
<path opacity="0.2" d="M80.024 86.0693C79.778 86.2864 79.5289 86.4927 79.2709 86.691H66.096C65.9243 86.691 65.7827 86.5512 65.7827 86.3816C65.7827 86.2091 65.9243 86.0693 66.096 86.0693H80.024Z" fill="#7193ED"/>
<path opacity="0.2" d="M83.0534 82.7543C82.9007 82.9675 82.7401 83.1737 82.5834 83.376H66.096C65.9243 83.376 65.7827 83.2362 65.7827 83.0637C65.7827 82.8941 65.9243 82.7543 66.096 82.7543H83.0534Z" fill="#7193ED"/>
<path opacity="0.2" d="M85.2583 79.0972C85.1619 79.2956 85.0645 79.4909 84.9601 79.6823C84.9561 79.6932 84.9491 79.7041 84.9451 79.715H66.096C66.0478 79.715 65.9996 79.7041 65.9584 79.6823C65.854 79.6347 65.7837 79.5276 65.7837 79.4066C65.7837 79.2341 65.9253 79.0972 66.097 79.0972H85.2583Z" fill="#7193ED"/>
<path opacity="0.2" d="M86.8308 75.0931C86.7675 75.3023 86.7043 75.5086 86.633 75.7148H66.096C65.9243 75.7148 65.7827 75.575 65.7827 75.4025C65.7827 75.2329 65.9243 75.0931 66.096 75.0931H86.8308Z" fill="#7193ED"/>
<path opacity="0.2" d="M87.8038 70.7478C87.7737 70.958 87.7405 71.1633 87.7074 71.3695H66.096C65.9243 71.3695 65.7827 71.2297 65.7827 71.0602C65.7827 70.8876 65.9243 70.7478 66.096 70.7478H87.8038Z" fill="#7193ED"/>
<path opacity="0.2" d="M65.7837 43.4634V42.4847C66.0187 42.448 66.2717 42.4331 66.5287 42.4331H70.0873C71.9087 42.4331 73.6639 42.7901 75.3217 43.4525C75.3327 43.4565 75.3398 43.4594 75.3518 43.4634H65.7837Z" fill="white"/>
<path opacity="0.2" d="M78.8983 45.4615H65.7837V44.0375H76.611C76.6331 44.0484 76.6521 44.0594 76.6742 44.0703C77.4414 44.4689 78.1864 44.932 78.8983 45.4615Z" fill="white"/>
<path opacity="0.2" d="M82.3043 48.715H65.7837V46.3639H80.0199C80.8282 47.066 81.5923 47.8533 82.3043 48.715Z" fill="white"/>
<path opacity="0.2" d="M84.5354 51.9675H65.7837V49.9991H83.2802C83.7271 50.6239 84.1448 51.2833 84.5354 51.9675Z" fill="white"/>
<path opacity="0.2" d="M86.1229 55.3043H65.7837V53.3359H85.2553C85.5676 53.9726 85.8588 54.628 86.1229 55.3043Z" fill="white"/>
<path opacity="0.2" d="M87.136 58.421H65.7837V57.4383H86.8609C86.9573 57.7626 87.0507 58.0898 87.136 58.421Z" fill="white"/>
<path opacity="0.2" d="M87.867 62.1633H65.7837V61.6705H87.7997C87.8038 61.6744 87.8038 61.6774 87.8038 61.6814C87.8258 61.84 87.8479 62.0017 87.867 62.1633Z" fill="white"/>
<path opacity="0.2" d="M88.0207 68.8349C88.0307 68.7179 88.0397 68.5999 88.0478 68.4819C88.0719 68.1468 88.092 67.8096 88.106 67.4705C88.106 67.4596 88.107 67.4477 88.108 67.4368C88.108 67.4308 88.109 67.4239 88.109 67.4179H88.108C88.1231 67.0203 88.1311 66.6207 88.1311 66.2181C88.1311 53.0861 80.0531 42.4331 70.0863 42.4331C69.9638 42.4331 69.8363 42.4331 69.7138 42.44C79.5088 42.6979 87.3861 53.2507 87.3861 66.2171C87.3861 66.6197 87.378 67.0193 87.363 67.4169H65.7837V42.4847C64.9644 42.5987 64.3418 42.8972 64.1932 43.268C64.1932 43.275 64.1892 43.2829 64.1892 43.2899C64.1701 43.3375 64.1631 43.3851 64.1631 43.4336V88.9975C64.1631 89.0451 64.1701 89.0937 64.1892 89.1413C64.3529 89.6272 65.3409 89.999 66.5288 89.999H70.0873C70.3655 89.999 70.6426 89.9881 70.9187 89.9713C71 89.9663 71.0814 89.9594 71.1627 89.9534C71.3696 89.9376 71.5764 89.9167 71.7812 89.891C71.8566 89.882 71.9329 89.8741 72.0082 89.8632C72.2753 89.8255 72.5403 89.7819 72.8044 89.7303C72.8556 89.7204 72.9068 89.7075 72.9581 89.6966C73.1749 89.651 73.3918 89.6004 73.6057 89.5439C73.689 89.5221 73.7724 89.4993 73.8557 89.4765C74.0586 89.4199 74.2604 89.3585 74.4612 89.292C74.5225 89.2722 74.5847 89.2533 74.646 89.2325C74.8759 89.1532 75.1048 89.0699 75.3318 88.9797C75.3539 88.9707 75.3759 88.9598 75.399 88.9509C75.4804 88.9182 75.5607 88.8815 75.641 88.8468C75.8198 88.7704 75.9975 88.6921 76.1732 88.6098C76.2606 88.5681 76.3479 88.5255 76.4353 88.4829C76.5186 88.4422 76.602 88.4045 76.6843 88.3619C76.7807 88.3123 76.8751 88.2568 76.9705 88.2042C77.0488 88.1616 77.1271 88.1199 77.2044 88.0753C77.3902 87.9702 77.5749 87.8591 77.7577 87.7461C77.824 87.7054 77.8902 87.6668 77.9555 87.6251C78.1935 87.4724 78.4294 87.3147 78.6614 87.1491C78.7367 87.0956 78.811 87.0371 78.8853 86.9815C79.0148 86.8854 79.1454 86.7912 79.2739 86.692C79.295 86.6751 79.3151 86.6573 79.3361 86.6404C79.5099 86.5036 79.6806 86.3598 79.8512 86.215C79.9095 86.1654 79.9697 86.1208 80.027 86.0702C80.044 86.0554 80.0601 86.0395 80.0762 86.0256C80.2017 85.9156 80.3252 85.8005 80.4487 85.6865C80.5662 85.5784 80.6837 85.4703 80.7981 85.3583C80.8925 85.266 80.9849 85.1708 81.0783 85.0766C81.2138 84.9398 81.3484 84.802 81.4809 84.6602C81.5622 84.5729 81.6416 84.4837 81.7209 84.3954C81.8605 84.2407 81.999 84.084 82.1346 83.9234C82.2039 83.8411 82.2722 83.7578 82.3414 83.6735C82.4228 83.5743 82.5061 83.4782 82.5864 83.377C82.6457 83.3007 82.7039 83.2203 82.7632 83.142C82.8264 83.0597 82.8887 82.9774 82.9499 82.8941C82.9851 82.8465 83.0212 82.8029 83.0554 82.7543C83.1347 82.6472 83.21 82.5361 83.2873 82.427C83.3526 82.3348 83.4188 82.2446 83.4831 82.1514C83.6618 81.8906 83.8376 81.6248 84.0072 81.3541C84.0193 81.3353 84.0303 81.3154 84.0424 81.2956C84.203 81.0388 84.3587 80.776 84.5103 80.5102C84.5424 80.4537 84.5736 80.3972 84.6057 80.3407C84.679 80.2108 84.7533 80.0819 84.8246 79.95H84.8166C84.8648 79.8607 84.914 79.7715 84.9611 79.6813H84.9622C84.9702 79.6664 84.9772 79.6515 84.9852 79.6366C85.0344 79.5424 85.0816 79.4482 85.1298 79.353C85.173 79.2677 85.2182 79.1835 85.2604 79.0962C85.2905 79.0337 85.3166 78.9683 85.3467 78.9058C85.4953 78.5964 85.6379 78.2831 85.7755 77.9648C85.8166 77.8686 85.8608 77.7734 85.901 77.6762C86.0767 77.2548 86.2434 76.8264 86.4 76.3901C86.403 76.3811 86.4071 76.3722 86.4111 76.3623H86.4101C86.4583 76.2274 86.5035 76.0906 86.5496 75.9538H86.5527C86.5828 75.8764 86.6089 75.7951 86.635 75.7148C86.647 75.6791 86.6571 75.6434 86.6691 75.6077C86.7043 75.5016 86.7374 75.3945 86.7705 75.2884C86.7906 75.2229 86.8127 75.1585 86.8328 75.093C86.8589 75.0078 86.881 74.9205 86.9061 74.8352C86.9704 74.6171 87.0336 74.3989 87.0939 74.1778C87.1381 74.0142 87.1792 73.8495 87.2204 73.6839C87.2826 73.437 87.3409 73.1891 87.3971 72.9392C87.4041 72.9045 87.4142 72.8718 87.4212 72.8371H87.4192C87.5076 72.4345 87.5879 72.027 87.6602 71.6154H87.6672C87.6783 71.5341 87.6933 71.4538 87.7084 71.3685C87.7214 71.2872 87.7335 71.2049 87.7465 71.1236C87.7586 71.0492 87.7696 70.9758 87.7817 70.9015C87.7897 70.8499 87.7988 70.7993 87.8058 70.7468C87.848 70.4632 87.8851 70.1766 87.9192 69.889C87.9283 69.8137 87.9353 69.7363 87.9433 69.66C87.9705 69.3883 87.9976 69.1126 88.0207 68.8349ZM84.0695 79.951H65.7837V79.6822H84.2131C84.1649 79.7715 84.1177 79.8617 84.0695 79.951ZM85.665 76.3633H65.7837V75.9548H85.8046C85.7574 76.0906 85.7142 76.2284 85.665 76.3633ZM86.6732 72.8381H65.7837V71.6164H86.9141C86.8408 72.0279 86.7615 72.4345 86.6732 72.8381Z" fill="#7193ED"/>
<path d="M83.2884 66.2193C83.2884 79.3533 75.2093 90.0003 65.2446 90.0003C55.2768 90.0003 47.1978 79.3533 47.1978 66.2193C47.1978 53.0853 55.2768 42.4343 65.2446 42.4343C75.2103 42.4343 83.2884 53.0853 83.2884 66.2193Z" fill="#E8EEFC"/>
<path opacity="0.2" d="M65.2435 86.1823C73.6095 86.1823 80.3915 77.244 80.3915 66.218C80.3915 55.1921 73.6095 46.2538 65.2435 46.2538C56.8776 46.2538 50.0956 55.1921 50.0956 66.218C50.0956 77.244 56.8776 86.1823 65.2435 86.1823Z" fill="#7193ED"/>
<path opacity="0.2" d="M82.7525 60.4349C82.7525 60.4349 82.7525 60.4349 82.7525 60.4319C80.7915 50.0923 73.6975 42.4321 65.2459 42.4321C55.2781 42.4321 47.1991 53.083 47.1991 66.217C47.1991 70.5365 48.0727 74.5843 49.5999 78.0738C52.7157 85.2015 58.5555 89.998 65.2459 89.998C75.2117 89.998 83.2897 79.351 83.2897 66.217C83.2897 64.2219 83.1049 62.2872 82.7525 60.4349ZM65.2459 89.2027C59.2875 89.2027 54.031 85.266 50.8852 79.2637C48.9422 75.5581 47.8056 71.0621 47.8056 66.218C47.8056 53.5243 55.6115 43.2323 65.2459 43.2323C73.9083 43.2323 81.0947 51.5559 82.4523 62.4677C82.6039 63.6874 82.6832 64.9408 82.6832 66.218C82.6832 78.9107 74.8773 89.2027 65.2459 89.2027Z" fill="#7193ED"/>
<path opacity="0.2" d="M78.9355 57.6733C76.4112 51.2872 71.3425 46.9311 65.5006 46.9311C57.1343 46.9311 50.3536 55.8715 50.3536 66.8943C50.3536 69.9564 50.8778 72.8599 51.8136 75.455C50.7161 72.6943 50.0966 69.5499 50.0966 66.217C50.0966 55.1932 56.8773 46.2538 65.2435 46.2538C71.2882 46.2538 76.5086 50.9223 78.9355 57.6733Z" fill="#7193ED"/>
<path opacity="0.2" d="M83.2894 66.217C83.2894 79.351 75.2104 89.998 65.2456 89.998C58.5552 89.998 52.7154 85.2016 49.5996 78.0738C49.9932 78.4566 50.422 78.8562 50.8849 79.2628C54.0307 85.266 59.2872 89.2017 65.2456 89.2017C74.877 89.2017 82.6829 78.9097 82.6829 66.216C82.6829 64.9388 82.6036 63.6854 82.452 62.4657C82.5705 61.7478 82.6679 61.0666 82.7522 60.4329C83.1046 62.2872 83.2894 64.2219 83.2894 66.217Z" fill="#7193ED"/>
<g opacity="0.2">
<path d="M66.5519 76.9959V80.2623H64.7375L64.2234 79.585L64.7375 77.0246C62.5686 76.8501 59.953 75.2387 58.8022 73.9268L60.3124 71.659C61.3969 72.8251 63.0566 73.671 64.7385 73.8753V68.0426C63.2745 67.5735 60.5303 66.216 59.8415 64.5134C59.8415 64.5134 59.6487 63.7895 59.6487 62.1514C59.6487 59.1765 61.2864 56.5805 64.7385 56.1432L66.0388 52.1697L66.5529 52.847V56.0846C68.0691 56.1927 70.5312 57.1863 70.5312 57.1863L71.0453 57.8636L70.1376 60.8097C68.9648 59.9054 67.7257 59.4095 66.5529 59.235V65.1262C68.0882 65.6181 70.0131 66.6513 70.0131 66.6513C71.0293 67.7788 71.6869 69.4685 71.6869 70.9887C71.6859 73.9625 70.0261 76.5288 66.5519 76.9959ZM64.7375 64.5134V59.3223C63.1661 59.6426 62.5024 60.6927 62.5024 61.9758C62.5024 63.376 63.4543 64.0176 64.7375 64.5134ZM68.8534 71.2505C68.8534 69.8215 67.8794 69.1512 66.5519 68.6554V73.8178C68.1675 73.4965 68.8534 72.5039 68.8534 71.2505Z" fill="#7193ED"/>
</g>
<path d="M66.0378 76.3176V79.584H64.2234V76.3474C62.0545 76.1719 59.953 75.2387 58.8022 73.9268L59.7983 70.9817C60.8828 72.1479 62.5425 72.9937 64.2244 73.198V67.3653C61.7684 66.5779 59.1346 65.5278 59.1346 61.4741C59.1346 58.4992 60.7723 55.9032 64.2244 55.4659V52.1697H66.0388V55.4074C67.6765 55.5244 69.3363 56.166 70.5312 57.1863L69.6235 60.1324C68.4507 59.2281 67.2116 58.7323 66.0388 58.5577V64.4489C68.4949 65.2363 71.1728 66.2567 71.1728 70.3104C71.1718 73.2853 69.512 75.8516 66.0378 76.3176ZM64.2234 63.8361V58.645C62.652 58.9653 61.9883 60.0154 61.9883 61.2986C61.9883 62.6987 62.9402 63.3403 64.2234 63.8361ZM68.3392 70.5722C68.3392 69.1433 67.3653 68.4719 66.0378 67.9771V73.1395C67.6534 72.8182 68.3392 71.8266 68.3392 70.5722Z" fill="#E8EEFC"/>
<path opacity="0.1" d="M83.2873 66.217C83.2873 74.4534 80.1103 81.717 75.2755 85.9839L48.8826 56.1868C51.7493 48.0645 57.9978 42.4321 65.2425 42.4321C75.2092 42.4331 83.2873 53.084 83.2873 66.217Z" fill="white"/>
</g>
<path d="M2 91.5H162" stroke="#E8EEFC"/>
<defs>
<clipPath id="clip0_204_5070">
<rect width="89" height="53" fill="white" transform="translate(37 37)"/>
</clipPath>
</defs>
</svg>
