<svg width="21" height="21" viewBox="0 0 21 21" fill="none" xmlns="http://www.w3.org/2000/svg">
<g clip-path="url(#clip0_204_4995)">
<path d="M8.98247 8.8927C8.17841 8.52361 7.28725 8.31258 6.34384 8.31258C2.84023 8.31258 0 11.1528 0 14.6562C0 18.1598 2.84023 21 6.34384 21C7.28725 21 8.17821 20.789 8.98247 20.4199C7.49043 18.9509 6.5625 16.9105 6.5625 14.6562C6.5625 12.4021 7.49043 10.3617 8.98247 8.8927Z" fill="#111F3A"/>
<path d="M20.4199 12.0167C18.9509 13.5095 16.9106 14.4375 14.6562 14.4375C12.4021 14.4375 10.3617 13.5096 8.89274 12.0167C8.52365 12.8215 8.31262 13.7127 8.31262 14.6562C8.31262 18.1598 11.1529 21 14.6562 21C18.1598 21 21 18.1598 21 14.6562C21 13.7128 20.789 12.8218 20.4199 12.0167Z" fill="#111F3A"/>
<path d="M14.6562 0C13.7128 0 12.8218 0.211025 12.0167 0.580115C13.5095 2.04904 14.4375 4.08946 14.4375 6.34384C14.4375 8.5979 13.5096 10.6383 12.0167 12.1073C12.8216 12.4764 13.7127 12.6874 14.6562 12.6874C18.1598 12.6874 21 9.84719 21 6.34384C21 2.84023 18.1598 0 14.6562 0Z" fill="#111F3A"/>
<path d="M6.34384 0C2.84023 0 0 2.84023 0 6.34384C0 7.28725 0.211025 8.17821 0.580115 8.98247C2.04909 7.49043 4.08946 6.5625 6.34384 6.5625C8.5979 6.5625 10.6383 7.49043 12.1073 8.98247C12.4764 8.17841 12.6874 7.28725 12.6874 6.34384C12.6874 2.84023 9.84719 0 6.34384 0Z" fill="#111F3A"/>
</g>
<defs>
<clipPath id="clip0_204_4995">
<rect width="21" height="21" fill="white"/>
</clipPath>
</defs>
</svg>
