<svg width="25" height="26" viewBox="0 0 25 26" fill="none" xmlns="http://www.w3.org/2000/svg">
<path d="M12.5135 2.84375C13.2781 2.85208 14.0396 2.94063 14.7854 3.10729C14.9443 3.14276 15.0881 3.22698 15.1968 3.34819C15.3055 3.46939 15.3736 3.62153 15.3917 3.78333L15.5687 5.37396C15.5937 5.59835 15.671 5.81374 15.7944 6.00279C15.9178 6.19183 16.0839 6.34925 16.2793 6.46235C16.4747 6.57546 16.694 6.64109 16.9194 6.65396C17.1448 6.66683 17.3701 6.62658 17.5771 6.53646L19.0354 5.89583C19.1836 5.83057 19.3484 5.81296 19.507 5.84543C19.6656 5.8779 19.8102 5.95885 19.9208 6.07708C20.9749 7.20324 21.7599 8.55377 22.2167 10.0271C22.2645 10.1819 22.2631 10.3478 22.2125 10.5018C22.162 10.6558 22.0647 10.7902 21.9344 10.8865L20.6406 11.8406C20.4585 11.9742 20.3105 12.1488 20.2085 12.3503C20.1065 12.5518 20.0534 12.7744 20.0535 13.0003C20.0536 13.2261 20.1069 13.4487 20.2091 13.6501C20.3113 13.8515 20.4595 14.0259 20.6417 14.1594L21.9364 15.1125C22.067 15.2088 22.1644 15.3434 22.215 15.4976C22.2656 15.6518 22.2669 15.8179 22.2187 15.9729C21.7621 17.4461 20.9775 18.7965 19.9239 19.9229C19.8135 20.0411 19.6692 20.1221 19.5108 20.1548C19.3524 20.1874 19.1877 20.1701 19.0396 20.1052L17.575 19.4625C17.3683 19.3717 17.143 19.3308 16.9176 19.3433C16.6921 19.3557 16.4728 19.4211 16.2773 19.5341C16.0818 19.6471 15.9157 19.8045 15.7924 19.9937C15.6691 20.1829 15.5921 20.3984 15.5677 20.6229L15.3917 22.2125C15.3739 22.3725 15.3071 22.5232 15.2005 22.6438C15.0938 22.7645 14.9525 22.8492 14.7958 22.8865C13.2873 23.2453 11.7157 23.2453 10.2073 22.8865C10.0506 22.8492 9.90928 22.7645 9.80263 22.6438C9.69597 22.5232 9.6292 22.3725 9.61145 22.2125L9.43436 20.625C9.40874 20.4015 9.33109 20.1871 9.20765 19.999C9.0842 19.811 8.9184 19.6544 8.72354 19.542C8.52868 19.4296 8.31018 19.3644 8.08557 19.3517C7.86097 19.339 7.63651 19.3791 7.43019 19.4688L5.96457 20.1104C5.81642 20.1753 5.65179 20.1926 5.49338 20.16C5.33497 20.1273 5.1906 20.0463 5.0802 19.9281C4.0261 18.8006 3.24149 17.4486 2.7854 15.974C2.73727 15.819 2.73859 15.6529 2.78918 15.4987C2.83976 15.3445 2.93711 15.2099 3.0677 15.1135L4.36353 14.1594C4.54566 14.0259 4.69378 13.8513 4.79587 13.6499C4.89797 13.4485 4.95117 13.2258 4.95117 13C4.95117 12.7742 4.89797 12.5515 4.79587 12.3501C4.69378 12.1487 4.54566 11.9741 4.36353 11.8406L3.06874 10.8885C2.93797 10.7923 2.84041 10.6578 2.78964 10.5036C2.73886 10.3494 2.73738 10.1832 2.7854 10.0281C3.2425 8.55472 4.02783 7.20418 5.08228 6.07813C5.19281 5.96011 5.33724 5.8793 5.49564 5.84683C5.65404 5.81437 5.81861 5.83185 5.96665 5.89688L7.42499 6.5375C7.6323 6.62737 7.8578 6.66736 8.08337 6.65426C8.30894 6.64116 8.5283 6.57534 8.72381 6.46208C8.91933 6.34882 9.08556 6.19128 9.20914 6.00213C9.33273 5.81297 9.41022 5.59746 9.4354 5.37292L9.61249 3.78333C9.63036 3.6212 9.69853 3.46873 9.80744 3.34731C9.91635 3.22588 10.0605 3.14159 10.2198 3.10625C10.9677 2.94063 11.7302 2.85313 12.5135 2.84375ZM12.5135 4.40625C12.0407 4.41175 11.5689 4.45248 11.1021 4.52813L10.9885 5.54583C10.9365 6.01413 10.7752 6.46364 10.5175 6.85811C10.2598 7.25258 9.91303 7.58096 9.5051 7.81676C9.09717 8.05255 8.63953 8.18916 8.1691 8.21556C7.69866 8.24197 7.22861 8.15742 6.79686 7.96875L5.86144 7.55833C5.2656 8.28138 4.79135 9.09654 4.45728 9.97188L5.28853 10.5833C5.66792 10.8622 5.97638 11.2263 6.18899 11.6464C6.4016 12.0665 6.51238 12.5307 6.51238 13.0016C6.51238 13.4724 6.4016 13.9366 6.18899 14.3567C5.97638 14.7768 5.66792 15.141 5.28853 15.4198L4.45728 16.0323C4.79061 16.9094 5.26457 17.726 5.8604 18.451L6.80415 18.0375C7.23487 17.8494 7.70373 17.7651 8.17298 17.7914C8.64223 17.8176 9.09877 17.9537 9.50584 18.1886C9.91291 18.4235 10.2591 18.7507 10.5167 19.1438C10.7742 19.5369 10.9358 19.9851 10.9885 20.4521L11.101 21.4771C12.0281 21.6333 12.975 21.6333 13.9021 21.4771L14.0146 20.4521C14.0661 19.9841 14.2271 19.5348 14.4844 19.1406C14.7418 18.7463 15.0883 18.4182 15.496 18.1827C15.9037 17.9472 16.3611 17.811 16.8312 17.785C17.3013 17.7591 17.7709 17.8441 18.2021 18.0333L19.1437 18.4458C19.7392 17.7223 20.2131 16.9068 20.5469 16.0313L19.7156 15.4188C19.336 15.1401 19.0274 14.7759 18.8146 14.3558C18.6019 13.9357 18.491 13.4714 18.491 13.0005C18.491 12.5296 18.6019 12.0653 18.8146 11.6452C19.0274 11.2251 19.336 10.861 19.7156 10.5823L20.5448 9.97083C20.2107 9.0955 19.7365 8.28034 19.1406 7.55729L18.2073 7.96667C17.7758 8.15557 17.3059 8.24036 16.8356 8.21418C16.3652 8.18801 15.9077 8.0516 15.4998 7.81597C15.0919 7.58035 14.7451 7.25211 14.4875 6.85776C14.2299 6.46342 14.0686 6.01401 14.0167 5.54583L13.9021 4.52917C13.4429 4.4541 12.9788 4.41337 12.5135 4.40729V4.40625ZM12.5 9.09375C13.536 9.09375 14.5296 9.5053 15.2621 10.2379C15.9947 10.9704 16.4062 11.964 16.4062 13C16.4062 14.036 15.9947 15.0296 15.2621 15.7621C14.5296 16.4947 13.536 16.9063 12.5 16.9063C11.464 16.9063 10.4704 16.4947 9.73785 15.7621C9.00529 15.0296 8.59374 14.036 8.59374 13C8.59374 11.964 9.00529 10.9704 9.73785 10.2379C10.4704 9.5053 11.464 9.09375 12.5 9.09375ZM12.5 10.6563C11.8784 10.6563 11.2822 10.9032 10.8427 11.3427C10.4032 11.7823 10.1562 12.3784 10.1562 13C10.1562 13.6216 10.4032 14.2177 10.8427 14.6573C11.2822 15.0968 11.8784 15.3438 12.5 15.3438C13.1216 15.3438 13.7177 15.0968 14.1573 14.6573C14.5968 14.2177 14.8437 13.6216 14.8437 13C14.8437 12.3784 14.5968 11.7823 14.1573 11.3427C13.7177 10.9032 13.1216 10.6563 12.5 10.6563Z" fill="#747F95"/>
</svg>
