<svg width="269" height="345" viewBox="0 0 269 345" fill="none" xmlns="http://www.w3.org/2000/svg">
<g opacity="0.06" clip-path="url(#clip0_204_4871)">
<path d="M155.268 153.717C141.37 147.337 125.965 143.689 109.658 143.689C49.0954 143.689 0 192.784 0 253.342C0 313.905 49.0954 363 109.658 363C125.965 363 141.366 359.352 155.268 352.972C129.477 327.58 113.438 292.311 113.438 253.342C113.438 214.379 129.477 179.109 155.268 153.717Z" fill="#E3FBFF"/>
<path d="M352.972 207.717C327.58 233.522 292.311 249.562 253.342 249.562C214.379 249.562 179.109 233.523 153.717 207.717C147.337 221.629 143.689 237.034 143.689 253.342C143.689 313.905 192.784 363 253.342 363C313.905 363 363 313.905 363 253.342C363 237.035 359.352 221.634 352.972 207.717Z" fill="#E3FBFF"/>
<path d="M253.342 0C237.035 0 221.634 3.64772 207.717 10.0277C233.522 35.4191 249.562 70.6893 249.562 109.658C249.562 148.621 233.523 183.891 207.717 209.283C221.629 215.663 237.034 219.311 253.342 219.311C313.905 219.311 363 170.216 363 109.658C363 49.0954 313.905 0 253.342 0Z" fill="#E3FBFF"/>
<path d="M109.658 0C49.0954 0 0 49.0954 0 109.658C0 125.965 3.64772 141.366 10.0277 155.268C35.42 129.477 70.6893 113.438 109.658 113.438C148.621 113.438 183.891 129.477 209.283 155.268C215.663 141.37 219.311 125.965 219.311 109.658C219.311 49.0954 170.216 0 109.658 0Z" fill="#E3FBFF"/>
</g>
<defs>
<clipPath id="clip0_204_4871">
<rect width="363" height="363" fill="white"/>
</clipPath>
</defs>
</svg>
