<svg width="42" height="42" viewBox="0 0 42 42" fill="none" xmlns="http://www.w3.org/2000/svg">
<circle opacity="0.8" cx="21" cy="21" r="21" fill="#0AB060"/>
<path d="M18.4635 27.5724L18.3666 27.687L18.3666 27.687L18.3666 27.687L18.3667 27.6871L18.3671 27.6874L18.3683 27.6884L18.3727 27.6921L18.3888 27.7055C18.4022 27.7167 18.4209 27.7321 18.4415 27.7487C18.4805 27.7802 18.5341 27.8224 18.5721 27.8467L18.5722 27.8467C18.7272 27.9456 18.9004 28.0134 19.0818 28.0465C19.2632 28.0795 19.4495 28.077 19.63 28.0392C19.8105 28.0014 19.9818 27.9291 20.134 27.8261C20.2863 27.7231 20.4165 27.5916 20.5173 27.4389C20.5173 27.4389 20.5173 27.4388 20.5173 27.4388L28.3745 15.5388L18.4635 27.5724ZM18.4635 27.5724L18.3666 27.687M18.4635 27.5724L18.3666 27.687M13.9523 23.4742L13.8515 23.5852C13.5772 23.3361 13.4144 22.9895 13.3997 22.6216C13.3851 22.2536 13.5198 21.8954 13.7735 21.6258C14.0271 21.3563 14.3788 21.1973 14.7509 21.183C14.9351 21.1759 15.1191 21.2046 15.2922 21.2674C15.4654 21.3302 15.6244 21.4259 15.7602 21.5492L19.0663 24.5529L26.0148 14.029C26.1156 13.8763 26.2458 13.7448 26.398 13.6419C26.5503 13.539 26.7215 13.4666 26.9019 13.4288C27.0823 13.3911 27.2686 13.3886 27.45 13.4216C27.6313 13.4545 27.8045 13.5223 27.9594 13.6211L13.9523 23.4742ZM13.9523 23.4742L13.8515 23.5853L18.3626 27.6835L18.3625 27.6835M13.9523 23.4742L18.3625 27.6835M18.3625 27.6835L18.3666 27.687M18.3625 27.6835L18.3666 27.687M28.5783 15.0361C28.5446 15.2154 28.4753 15.3862 28.3745 15.5388L28.5783 15.0361ZM28.5783 15.0361C28.6121 14.8569 28.6095 14.6729 28.5709 14.4947M28.5783 15.0361L28.5709 14.4947M28.5709 14.4947C28.5322 14.3164 28.4582 14.1475 28.3533 13.9977M28.5709 14.4947L28.3533 13.9977M28.3533 13.9977C28.2483 13.8478 28.1145 13.7199 27.9595 13.6211L28.3533 13.9977Z" fill="white" stroke="white" stroke-width="0.3"/>
</svg>
