<svg width="144" height="144" viewBox="0 0 144 144" fill="none" xmlns="http://www.w3.org/2000/svg">
<circle cx="72" cy="72" r="72" fill="#E9FEF7"/>
<circle opacity="0.2" cx="72" cy="72" r="52" fill="#0AB060"/>
<circle opacity="0.8" cx="72" cy="72" r="31" fill="#0AB060"/>
<g clip-path="url(#clip0_271_2152)">
<path d="M80.0922 61.3212L79.8121 60.907C80.0669 60.7348 80.3533 60.6138 80.6549 60.5506C80.9564 60.4875 81.2676 60.4834 81.5708 60.5385C81.8739 60.5935 82.1634 60.7068 82.4227 60.8722L80.0922 61.3212ZM80.0922 61.3212L79.8121 60.907C79.5573 61.0793 79.339 61.2996 79.17 61.5557C79.1699 61.5558 79.1699 61.5558 79.1699 61.5558L69.0918 76.8198L64.4519 72.6044C64.2245 72.3977 63.9583 72.2376 63.6688 72.1326C63.3793 72.0276 63.0719 71.9797 62.764 71.9916C62.1424 72.0155 61.5541 72.2811 61.1291 72.7327C60.7038 73.1847 60.4772 73.786 60.5018 74.4046C60.5265 75.0232 60.8002 75.6048 61.2597 76.0223L61.2597 76.0223L67.919 82.072L67.9255 82.078L67.9323 82.0837L68.2552 81.7019L67.9323 82.0837L67.9323 82.0837L67.9324 82.0838L67.9326 82.0839L67.9332 82.0844L67.9352 82.0861L67.9422 82.092L67.9669 82.1126C67.9875 82.1297 68.016 82.1533 68.0478 82.179C68.1037 82.2241 68.1944 82.296 68.2656 82.3415L68.2659 82.3417C68.5253 82.5072 68.8149 82.6206 69.1181 82.6758C69.4214 82.7309 69.7327 82.7268 70.0343 82.6637C70.336 82.6005 70.6225 82.4795 70.8773 82.3072C71.1322 82.1348 71.3505 81.9145 71.5195 81.6583C71.5196 81.6582 71.5196 81.6582 71.5196 81.6581L83.1182 64.0916C83.1182 64.0915 83.1182 64.0915 83.1182 64.0915L80.0922 61.3212Z" fill="white" stroke="white"/>
</g>
<defs>
<clipPath id="clip0_271_2152">
<rect width="24" height="24" fill="white" transform="translate(60 60)"/>
</clipPath>
</defs>
</svg>
